<svg width="744" height="421" viewBox="0 0 744 421" fill="none" xmlns="http://www.w3.org/2000/svg">
<path d="M348.832 10.32L8.99191 366.992C3.31865 372.943 0.153809 380.85 0.153809 389.072C0.153809 397.294 3.31865 405.201 8.99191 411.152L9.37592 411.536C12.1262 414.431 15.4367 416.736 19.106 418.312C22.7753 419.887 26.7267 420.699 30.7199 420.699C34.7131 420.699 38.6645 419.887 42.3338 418.312C46.0031 416.736 49.3136 414.431 52.0639 411.536L372.064 75.664L691.936 411.536C694.686 414.431 697.997 416.736 701.666 418.312C705.335 419.887 709.287 420.699 713.28 420.699C717.273 420.699 721.224 419.887 724.894 418.312C728.563 416.736 731.874 414.431 734.624 411.536L735.008 411.152C740.681 405.201 743.846 397.294 743.846 389.072C743.846 380.85 740.681 372.943 735.008 366.992L395.168 10.32C392.179 7.18322 388.585 4.68599 384.602 2.97971C380.62 1.27342 376.332 0.393585 372 0.393585C367.667 0.393585 363.38 1.27342 359.397 2.97971C355.415 4.68599 351.821 7.18322 348.832 10.32Z" fill="black"/>
</svg>
